<?xml version="1.0" encoding="UTF-8"?>
<svg xmlns="http://www.w3.org/2000/svg" xmlns:xlink="http://www.w3.org/1999/xlink" viewBox="0 0 48 48" width="48px" height="48px">
<g id="surface284536544">
<rect x="0" y="0" width="48" height="48" style="fill:rgb(80.000001%,80.000001%,80.000001%);fill-opacity:1;stroke:none;"/>
<path style=" stroke:none;fill-rule:nonzero;fill:rgb(91.37255%,11.764706%,38.82353%);fill-opacity:1;" d="M 0.0585938 5.378906 C 0.0585938 2.441406 2.441406 0.0585938 5.378906 0.0585938 L 42.621094 0.0585938 C 45.558594 0.0585938 47.941406 2.441406 47.941406 5.378906 L 47.941406 42.621094 C 47.941406 45.558594 45.558594 47.941406 42.621094 47.941406 L 5.378906 47.941406 C 2.441406 47.941406 0.0585938 45.558594 0.0585938 42.621094 Z M 0.0585938 5.378906 "/>
<path style=" stroke:none;fill-rule:nonzero;fill:rgb(8.627451%,0.784314%,4.313726%);fill-opacity:1;" d="M 28.367188 22.074219 C 27.691406 22.074219 27.199219 22.347656 26.886719 22.894531 C 26.574219 23.4375 26.417969 24.410156 26.417969 25.804688 L 26.417969 26.777344 C 26.417969 28.164062 26.566406 29.132812 26.859375 29.679688 C 27.152344 30.230469 27.652344 30.503906 28.351562 30.503906 C 29.082031 30.503906 29.632812 30.179688 30.003906 29.53125 L 30.003906 23.117188 C 29.640625 22.421875 29.09375 22.074219 28.367188 22.074219 Z M 28.367188 22.074219 "/>
<path style=" stroke:none;fill-rule:nonzero;fill:rgb(8.627451%,0.784314%,4.313726%);fill-opacity:1;" d="M 4.050781 4.050781 L 4.050781 43.949219 L 43.949219 43.949219 L 43.949219 4.050781 Z M 20.199219 33.308594 L 16.378906 33.308594 L 16.378906 14.398438 L 20.199219 14.398438 Z M 33.703125 33.308594 L 30.367188 33.308594 L 30.199219 31.882812 C 29.445312 33.007812 28.476562 33.570312 27.289062 33.570312 C 25.816406 33.570312 24.691406 33.007812 23.917969 31.882812 C 23.144531 30.753906 22.746094 29.101562 22.730469 26.921875 L 22.730469 25.855469 C 22.730469 23.554688 23.117188 21.832031 23.898438 20.699219 C 24.675781 19.5625 25.8125 18.996094 27.300781 18.996094 C 28.382812 18.996094 29.28125 19.464844 30.003906 20.402344 L 30.003906 13.359375 L 33.703125 13.359375 Z M 33.703125 33.308594 "/>
</g>
</svg>
