<?xml version="1.0" encoding="UTF-8"?>
<svg xmlns="http://www.w3.org/2000/svg" xmlns:xlink="http://www.w3.org/1999/xlink" viewBox="0 0 48 48" width="48px" height="48px">
<g id="surface285408908">
<rect x="0" y="0" width="48" height="48" style="fill:rgb(80.000001%,80.000001%,80.000001%);fill-opacity:1;stroke:none;"/>
<path style=" stroke:none;fill-rule:nonzero;fill:rgb(1.176471%,66.274512%,95.686275%);fill-opacity:1;" d="M 0.0585938 5.378906 C 0.0585938 2.441406 2.441406 0.0585938 5.378906 0.0585938 L 42.621094 0.0585938 C 45.558594 0.0585938 47.941406 2.441406 47.941406 5.378906 L 47.941406 42.621094 C 47.941406 45.558594 45.558594 47.941406 42.621094 47.941406 L 5.378906 47.941406 C 2.441406 47.941406 0.0585938 45.558594 0.0585938 42.621094 Z M 0.0585938 5.378906 "/>
<path style=" stroke:none;fill-rule:nonzero;fill:rgb(0.784314%,5.882353%,8.627451%);fill-opacity:1;" d="M 18.703125 17.582031 L 16.039062 17.582031 L 16.039062 23.480469 L 18.664062 23.480469 C 19.390625 23.480469 19.953125 23.242188 20.351562 22.765625 C 20.75 22.289062 20.949219 21.59375 20.949219 20.6875 C 20.949219 19.742188 20.746094 18.992188 20.339844 18.433594 C 19.929688 17.875 19.386719 17.589844 18.703125 17.582031 Z M 18.703125 17.582031 "/>
<path style=" stroke:none;fill-rule:nonzero;fill:rgb(0.784314%,5.882353%,8.627451%);fill-opacity:1;" d="M 4.050781 4.050781 L 4.050781 43.949219 L 43.949219 43.949219 L 43.949219 4.050781 Z M 23.15625 25.050781 C 22.058594 26.125 20.53125 26.660156 18.585938 26.660156 L 16.039062 26.660156 L 16.039062 33.308594 L 12.21875 33.308594 L 12.21875 14.398438 L 18.664062 14.398438 C 20.53125 14.398438 22.023438 14.980469 23.136719 16.140625 C 24.25 17.300781 24.804688 18.804688 24.804688 20.660156 C 24.804688 22.511719 24.253906 23.976562 23.15625 25.050781 Z M 35.546875 32.425781 C 34.605469 33.1875 33.363281 33.570312 31.832031 33.570312 C 30.800781 33.570312 29.890625 33.367188 29.105469 32.964844 C 28.316406 32.5625 27.699219 32 27.253906 31.28125 C 26.808594 30.566406 26.585938 29.789062 26.585938 28.957031 L 30.078125 28.957031 C 30.097656 29.597656 30.246094 30.078125 30.527344 30.398438 C 30.808594 30.71875 31.269531 30.878906 31.910156 30.878906 C 32.894531 30.878906 33.390625 30.433594 33.390625 29.542969 C 33.390625 29.230469 33.242188 28.941406 32.941406 28.679688 C 32.640625 28.414062 31.980469 28.058594 30.949219 27.609375 C 29.433594 26.992188 28.394531 26.359375 27.824219 25.699219 C 27.257812 25.039062 26.972656 24.222656 26.972656 23.242188 C 26.972656 22.011719 27.417969 21 28.304688 20.199219 C 29.191406 19.398438 30.371094 18.996094 31.832031 18.996094 C 33.371094 18.996094 34.605469 19.394531 35.53125 20.191406 C 36.460938 20.984375 36.921875 22.058594 36.921875 23.398438 L 33.246094 23.398438 C 33.246094 22.257812 32.769531 21.683594 31.816406 21.683594 C 31.429688 21.683594 31.109375 21.804688 30.855469 22.046875 C 30.601562 22.289062 30.480469 22.628906 30.480469 23.0625 C 30.480469 23.371094 30.617188 23.648438 30.894531 23.886719 C 31.175781 24.125 31.824219 24.464844 32.859375 24.90625 C 34.355469 25.460938 35.414062 26.078125 36.035156 26.757812 C 36.652344 27.4375 36.960938 28.320312 36.960938 29.398438 C 36.960938 30.65625 36.488281 31.664062 35.546875 32.425781 Z M 35.546875 32.425781 "/>
</g>
</svg>
