<?xml version="1.0" encoding="UTF-8"?>
<svg xmlns="http://www.w3.org/2000/svg" xmlns:xlink="http://www.w3.org/1999/xlink" viewBox="0 0 48 48" width="48px" height="48px">
<g id="surface6667243">
<rect x="0" y="0" width="48" height="48" style="fill:rgb(80.000001%,80.000001%,80.000001%);fill-opacity:1;stroke:none;"/>
<path style=" stroke:none;fill-rule:nonzero;fill:rgb(100%,34.117648%,13.333334%);fill-opacity:1;" d="M -0.660156 4.820312 C -0.660156 1.792969 1.792969 -0.660156 4.820312 -0.660156 L 43.179688 -0.660156 C 46.207031 -0.660156 48.660156 1.792969 48.660156 4.820312 L 48.660156 43.179688 C 48.660156 46.207031 46.207031 48.660156 43.179688 48.660156 L 4.820312 48.660156 C 1.792969 48.660156 -0.660156 46.207031 -0.660156 43.179688 Z M -0.660156 4.820312 "/>
<path style=" stroke:none;fill-rule:nonzero;fill:rgb(10.980392%,3.137255%,0.784314%);fill-opacity:1;" d="M 3.449219 3.449219 L 3.449219 44.550781 L 44.550781 44.550781 L 44.550781 3.449219 Z M 23.578125 33.589844 L 22.53125 29.601562 L 17.167969 29.601562 L 16.125 33.589844 L 11.964844 33.589844 L 18.050781 14.109375 L 21.652344 14.109375 L 27.777344 33.589844 Z M 33.382812 33.589844 L 29.585938 33.589844 L 29.585938 19.113281 L 33.382812 19.113281 Z M 32.976562 16.8125 C 32.605469 17.195312 32.105469 17.386719 31.46875 17.386719 C 30.835938 17.386719 30.335938 17.195312 29.964844 16.8125 C 29.59375 16.429688 29.410156 15.945312 29.410156 15.367188 C 29.410156 14.777344 29.597656 14.296875 29.972656 13.921875 C 30.347656 13.546875 30.847656 13.359375 31.46875 13.359375 C 32.09375 13.359375 32.59375 13.546875 32.96875 13.921875 C 33.34375 14.296875 33.53125 14.777344 33.53125 15.367188 C 33.53125 15.945312 33.347656 16.429688 32.976562 16.8125 Z M 32.976562 16.8125 "/>
<path style=" stroke:none;fill-rule:nonzero;fill:rgb(10.980392%,3.137255%,0.784314%);fill-opacity:1;" d="M 18.027344 26.324219 L 21.664062 26.324219 L 19.84375 19.382812 Z M 18.027344 26.324219 "/>
</g>
</svg>
